<svg id="Component_216_1" data-name="Component 216 – 1" xmlns="http://www.w3.org/2000/svg" width="23" height="21.109" viewBox="0 0 23 21.109">
  <rect id="Rectangle_1474" data-name="Rectangle 1474" width="23" height="1" transform="translate(0 20.109)" fill="#cecfd0"/>
  <path id="Path_405" data-name="Path 405" d="M23.142,16.851h-.358V13.289a1.754,1.754,0,0,0,.717-1.41,1.775,1.775,0,0,0-1.223-1.685,1.8,1.8,0,0,0-2,.619h-2.87V10.1a.356.356,0,0,0-.272-.344l-2.867-.71a.369.369,0,0,0-.308.064.354.354,0,0,0-.136.281h-.358V8.327a.357.357,0,0,0-.358-.355H11.675V5.841h.358a1.784,1.784,0,0,0,1.792-1.776.357.357,0,0,0-.358-.355H12.75a1.787,1.787,0,0,0-1.19.458A1.791,1.791,0,0,0,9.883,3H9.167a.357.357,0,0,0-.358.355A1.784,1.784,0,0,0,10.6,5.131h.358V5.5a1.775,1.775,0,0,0-1.075-.366H9.167a.357.357,0,0,0-.358.355A1.784,1.784,0,0,0,10.6,7.262h.358v.71H9.525a.357.357,0,0,0-.358.355V9.393a1.065,1.065,0,1,0,0,2.131v.71a1.065,1.065,0,1,0,0,2.131h4.658a.35.35,0,0,0,.1.252.363.363,0,0,0,.34.092L17.136,14a.356.356,0,0,0,.272-.344v-.71h2.87a1.744,1.744,0,0,0,.355.352v3.555h-.717a.358.358,0,0,0-.344.259l-1.358,4.713h-.125a1.787,1.787,0,0,0-1.4-1.385v-1.1h.358a1.784,1.784,0,0,0,1.792-1.776.357.357,0,0,0-.358-.355h-.717a1.792,1.792,0,0,0-1.634,1.058,2.155,2.155,0,0,0-1.591-.7h-.717a.357.357,0,0,0-.358.355,2.141,2.141,0,0,0,2.15,2.131h.358v.391a1.787,1.787,0,0,0-1.4,1.385H12.356a1.787,1.787,0,0,0-1.4-1.385v-1.1h.358a1.784,1.784,0,0,0,1.792-1.776.357.357,0,0,0-.358-.355h-.717A1.792,1.792,0,0,0,10.4,18.264a2.155,2.155,0,0,0-1.591-.7H8.092a.357.357,0,0,0-.358.355,2.141,2.141,0,0,0,2.15,2.131h.358v.391a1.787,1.787,0,0,0-1.4,1.385H6.264a1.787,1.787,0,0,0-1.4-1.385v-.391h.358a2.141,2.141,0,0,0,2.15-2.131.357.357,0,0,0-.358-.355H6.3a2.155,2.155,0,0,0-1.591.7,1.792,1.792,0,0,0-1.634-1.058H2.358A.357.357,0,0,0,2,17.561a1.784,1.784,0,0,0,1.792,1.776H4.15v1.1a1.787,1.787,0,0,0-1.4,1.385H2v.71H23.5V17.206A.357.357,0,0,0,23.142,16.851ZM12.75,4.421h.3a1.079,1.079,0,0,1-1.014.71h-.3A1.079,1.079,0,0,1,12.75,4.421Zm-2.15,0a1.079,1.079,0,0,1-1.014-.71h.3a1.079,1.079,0,0,1,1.014.71Zm0,2.131a1.079,1.079,0,0,1-1.014-.71h.3a1.079,1.079,0,0,1,1.014.71ZM9.883,8.682H12.75V9.748H9.883Zm0,1.776H12.75v1.776H9.883Zm-1.075,0a.357.357,0,0,1,.358-.355v.71A.357.357,0,0,1,8.808,10.458Zm5.017,3.2H9.167a.355.355,0,1,1,0-.71h4.658Zm0-1.421h-.358v-.71h.358Zm0-1.421h-.358V10.1h.358Zm2.867,2.564-2.15.533V9.847l2.15.533Zm3.261-1.144H17.408v-.71h2.544a1.778,1.778,0,0,0,0,.71Zm-2.186,5.682h.3a1.079,1.079,0,0,1-1.014.71h-.3a1.079,1.079,0,0,1,1.014-.71Zm-2.15,1.421a1.431,1.431,0,0,1-1.387-1.065h.312a1.431,1.431,0,0,1,1.387,1.065Zm-3.583-1.421h.3a1.079,1.079,0,0,1-1.014.71h-.3a1.079,1.079,0,0,1,1.014-.71Zm-2.15,1.421A1.431,1.431,0,0,1,8.5,18.271h.312A1.431,1.431,0,0,1,10.2,19.337ZM6.3,18.271h.312a1.431,1.431,0,0,1-1.387,1.065H4.913A1.431,1.431,0,0,1,6.3,18.271Zm-2.508.355a1.079,1.079,0,0,1-1.014-.71h.3a1.08,1.08,0,0,1,1.014.71Zm-.294,3.2a1.074,1.074,0,0,1,2.021,0Zm6.092,0a1.074,1.074,0,0,1,2.021,0Zm5.733,0a1.074,1.074,0,0,1,2.021,0ZM20.78,11.346a1.062,1.062,0,1,1,0,1.066,1.053,1.053,0,0,1,0-1.066Zm1.286,2.273v3.232H21.35V13.615a2.012,2.012,0,0,0,.358.039A1.977,1.977,0,0,0,22.067,13.619Zm.717,8.2H18.96l1.226-4.262h2.6Z" transform="translate(-1.264 -3)" fill="#cecfd0"/>
</svg>
