<svg id="Component_217_1" data-name="Component 217 – 1" xmlns="http://www.w3.org/2000/svg" width="13.767" height="15" viewBox="0 0 13.767 15">
  <path id="Path_443" data-name="Path 443" d="M13.86,12.914H11.068a.487.487,0,0,1-.482-.491V9.58a.487.487,0,0,1,.482-.491H13.86a.487.487,0,0,1,.482.491v2.843A.487.487,0,0,1,13.86,12.914Zm-2.31-.982h1.828V10.071H11.55Zm12.32-1.094H17.805a.491.491,0,0,1,0-.982h6.066a.491.491,0,0,1,0,.982Zm0,2.076H16.519a.491.491,0,0,1,0-.982h7.351a.491.491,0,0,1,0,.982ZM13.86,18.5H11.068a.487.487,0,0,1-.482-.491V15.167a.487.487,0,0,1,.482-.491H13.86a.487.487,0,0,1,.482.491v2.843a.487.487,0,0,1-.482.491Zm-2.31-.982h1.828V15.658H11.55Zm12.32-1.094H17.805a.491.491,0,0,1,0-.982h6.066a.491.491,0,0,1,0,.982Zm0,2.076H16.519a.491.491,0,0,1,0-.982h7.351a.491.491,0,0,1,0,.982ZM13.86,24.089H11.068a.487.487,0,0,1-.482-.491V20.755a.487.487,0,0,1,.482-.491H13.86a.487.487,0,0,1,.482.491V23.6a.487.487,0,0,1-.482.491Zm-2.31-.982h1.828V21.246H11.55Zm12.32-1.094H17.805a.491.491,0,0,1,0-.982h6.066a.491.491,0,0,1,0,.982Zm0,2.076H16.519a.491.491,0,0,1,0-.982h7.351a.491.491,0,0,1,0,.982Z" transform="translate(-10.586 -9.089)" fill="#cecfd0"/>
</svg>
