<svg xmlns="http://www.w3.org/2000/svg" width="24" height="24" viewBox="0 0 24 24">
  <g id="Group_271" data-name="Group 271" transform="translate(0 0.478)">
    <rect id="Rectangle_1472" data-name="Rectangle 1472" width="24" height="24" transform="translate(0 -0.478)" fill="none"/>
    <path id="Path_408" data-name="Path 408" d="M7.067,18.564h-2.9a2.228,2.228,0,0,1-1.535-.6A2.01,2.01,0,0,1,2,16.5V6.515A2.08,2.08,0,0,1,3.532,4.542l7.537-2.2a3.8,3.8,0,0,1,2.13,0l7.537,2.2a2.08,2.08,0,0,1,1.532,1.972V16.5a2.01,2.01,0,0,1-.636,1.459,2.228,2.228,0,0,1-1.535.6H17.2v.688a2.119,2.119,0,0,1-2.172,2.063H9.239a2.119,2.119,0,0,1-2.172-2.063Zm8.687.688V12.374a.707.707,0,0,0-.724-.688H9.239a.707.707,0,0,0-.724.688v6.877a.707.707,0,0,0,.724.688H15.03A.707.707,0,0,0,15.754,19.252ZM17.2,17.188h2.9a.742.742,0,0,0,.512-.2.669.669,0,0,0,.212-.486V6.515a.693.693,0,0,0-.511-.657l-7.536-2.2a2.283,2.283,0,0,0-1.278,0l-7.536,2.2a.693.693,0,0,0-.511.657V16.5a.669.669,0,0,0,.212.486.742.742,0,0,0,.512.2h2.9V12.374a2.119,2.119,0,0,1,2.172-2.063H15.03A2.119,2.119,0,0,1,17.2,12.374Z" transform="translate(0 0)" fill="#cecfd0" fill-rule="evenodd"/>
  </g>
</svg>
