<svg xmlns="http://www.w3.org/2000/svg" width="19.483" height="16.691" viewBox="0 0 19.483 16.691">
  <g id="Group_273" data-name="Group 273" transform="translate(4.482 -1032.31)">
    <rect id="Rectangle_1475" data-name="Rectangle 1475" width="19.483" height="16.691" rx="5.283" transform="translate(-4.482 1032.31)" fill="#cecfd0"/>
    <path id="Path_444" data-name="Path 444" d="M7.829,8l-.111.09C6.565,9.1,5.474,10.051,4.446,10.981l-.289.271.289.271c1.2,1.069,2.448,2.055,3.272,2.891l.089.09h7.634V8Zm.267.723h6.633v5.059H8.1c-.786-.78-1.84-1.628-2.871-2.53C6.132,10.437,7.089,9.607,8.1,8.723Zm.579,1.446a1.084,1.084,0,1,0,1.068,1.084A1.082,1.082,0,0,0,8.674,10.168Zm0,.723a.361.361,0,1,1-.356.361A.353.353,0,0,1,8.674,10.891Z" transform="translate(-5.482 1029.155)" fill="#fff"/>
  </g>
</svg>
