<svg xmlns="http://www.w3.org/2000/svg" width="17" height="12.93" viewBox="0 0 17 12.93">
  <g id="Group_274" data-name="Group 274" transform="translate(-2.5 -10.5)">
    <path id="Path_449" data-name="Path 449" d="M23.2,16.577a.633.633,0,1,0,0-1.246H21.965v-.208a.754.754,0,0,0-1.485,0v.208H19.242a.69.69,0,0,0-.742.623v2.492a.69.69,0,0,0,.742.623H22.46v1.246H19.242a.633.633,0,1,0,0,1.246H20.48v.208a.754.754,0,0,0,1.485,0v-.208H23.2a.69.69,0,0,0,.742-.623V18.446a.69.69,0,0,0-.742-.623H19.985V16.577Z" transform="translate(-10.128 -1.084)" fill="#cecfd0"/>
    <path id="Path_450" data-name="Path 450" d="M18.116,10.5H3.884A1.553,1.553,0,0,0,2.5,12.176v9.578A1.553,1.553,0,0,0,3.884,23.43H18.116A1.553,1.553,0,0,0,19.5,21.754V12.176A1.553,1.553,0,0,0,18.116,10.5Zm.2,11.254a.219.219,0,0,1-.2.239H3.884a.219.219,0,0,1-.2-.239V12.176a.219.219,0,0,1,.2-.239H18.116a.219.219,0,0,1,.2.239Z" transform="translate(0)" fill="#cecfd0"/>
  </g>
</svg>
