<svg xmlns="http://www.w3.org/2000/svg" width="17.808" height="19.071" viewBox="0 0 17.808 19.071">
  <g id="Group_269" data-name="Group 269" transform="translate(-2 -1022.36)">
    <path id="Path_405" data-name="Path 405" d="M6.77,1030.431a.2.2,0,0,0-.2.2v1.1a4.4,4.4,0,0,0-1.312.535l-.786-.777a.2.2,0,0,0-.281,0L3.067,1032.6a.194.194,0,0,0,0,.278l.787.778a4.3,4.3,0,0,0-.543,1.292H2.2a.2.2,0,0,0-.2.2v1.572a.2.2,0,0,0,.2.2H3.312a4.294,4.294,0,0,0,.541,1.3l-.786.777a.2.2,0,0,0,0,.278l1.125,1.112a.2.2,0,0,0,.281,0l.787-.778a4.405,4.405,0,0,0,1.31.537v1.1a.2.2,0,0,0,.2.2H8.36a.2.2,0,0,0,.2-.2v-1.1a4.4,4.4,0,0,0,1.312-.535l.786.777a.2.2,0,0,0,.281,0l1.125-1.112a.2.2,0,0,0,0-.278l-.787-.778a4.293,4.293,0,0,0,.543-1.3h1.113a.2.2,0,0,0,.2-.2v-1.572a.2.2,0,0,0-.2-.2H11.818a4.3,4.3,0,0,0-.541-1.3l.786-.777a.194.194,0,0,0,0-.278l-1.125-1.112a.2.2,0,0,0-.281,0l-.787.778a4.405,4.405,0,0,0-1.31-.537v-1.1a.2.2,0,0,0-.2-.2H6.77Zm.795,2.751a2.751,2.751,0,1,1-2.782,2.751,2.767,2.767,0,0,1,2.782-2.751Zm7.305-3.786a.124.124,0,0,0-.089.152l.182.673a2.762,2.762,0,0,0-.714.54l-.609-.348a.125.125,0,0,0-.172.046l-.5.863a.124.124,0,0,0,.046.17l.611.348a2.71,2.71,0,0,0-.118.881l-.681.18a.124.124,0,0,0-.089.152l.261.962a.126.126,0,0,0,.154.088l.681-.18a2.738,2.738,0,0,0,.546.706l-.352.6a.123.123,0,0,0,.046.17l.873.5a.126.126,0,0,0,.172-.046l.353-.6a2.8,2.8,0,0,0,.891.116l.182.673a.126.126,0,0,0,.154.088l.973-.258a.124.124,0,0,0,.089-.152l-.182-.673a2.762,2.762,0,0,0,.714-.54l.609.348a.126.126,0,0,0,.172-.046l.5-.863a.124.124,0,0,0-.046-.17l-.611-.348a2.708,2.708,0,0,0,.118-.881l.681-.18a.124.124,0,0,0,.089-.152l-.261-.962a.126.126,0,0,0-.154-.088l-.681.18a2.743,2.743,0,0,0-.546-.706l.352-.6a.123.123,0,0,0-.046-.17l-.873-.5a.125.125,0,0,0-.172.046l-.353.6a2.8,2.8,0,0,0-.891-.116l-.182-.673a.126.126,0,0,0-.154-.088l-.973.258Zm.942,1.554a1.764,1.764,0,0,1,2.158,1.232,1.74,1.74,0,0,1-1.246,2.134,1.764,1.764,0,0,1-2.158-1.232,1.74,1.74,0,0,1,1.246-2.134Zm-5.121-8.59a.145.145,0,0,0-.146.144v.807a3.226,3.226,0,0,0-.962.392l-.576-.57a.146.146,0,0,0-.206,0l-.825.816a.143.143,0,0,0,0,.2l.577.571a3.151,3.151,0,0,0-.4.95H7.34a.145.145,0,0,0-.146.144v1.153a.145.145,0,0,0,.146.144h.816a3.151,3.151,0,0,0,.4.951l-.576.569a.143.143,0,0,0,0,.2l.825.816a.146.146,0,0,0,.206,0l.577-.571a3.228,3.228,0,0,0,.961.394v.806a.145.145,0,0,0,.146.144h1.166a.145.145,0,0,0,.146-.144v-.807a3.226,3.226,0,0,0,.962-.392l.576.57a.146.146,0,0,0,.206,0l.825-.816a.143.143,0,0,0,0-.2l-.577-.571a3.152,3.152,0,0,0,.4-.95h.816a.145.145,0,0,0,.146-.144v-1.153a.145.145,0,0,0-.146-.144h-.816a3.148,3.148,0,0,0-.4-.951l.576-.57a.143.143,0,0,0,0-.2l-.825-.816a.146.146,0,0,0-.206,0l-.577.571a3.228,3.228,0,0,0-.961-.394v-.806a.145.145,0,0,0-.146-.144Zm.583,2.017a2.017,2.017,0,1,1-2.04,2.017A2.029,2.029,0,0,1,11.275,1024.377Z" fill="#cecfd0"/>
  </g>
</svg>
