<svg xmlns="http://www.w3.org/2000/svg" width="16" height="16" viewBox="0 0 16 16">
  <path id="Icon_awesome-list-alt" data-name="Icon awesome-list-alt" d="M14.5,18.25H1.5A1.618,1.618,0,0,1,0,16.536V3.964A1.618,1.618,0,0,1,1.5,2.25h13A1.618,1.618,0,0,1,16,3.964V16.536A1.618,1.618,0,0,1,14.5,18.25ZM4,5.393A1.348,1.348,0,0,0,2.75,6.821,1.348,1.348,0,0,0,4,8.25,1.348,1.348,0,0,0,5.25,6.821,1.348,1.348,0,0,0,4,5.393ZM4,8.821A1.348,1.348,0,0,0,2.75,10.25,1.348,1.348,0,0,0,4,11.679,1.348,1.348,0,0,0,5.25,10.25,1.348,1.348,0,0,0,4,8.821ZM4,12.25a1.348,1.348,0,0,0-1.25,1.429A1.348,1.348,0,0,0,4,15.107a1.348,1.348,0,0,0,1.25-1.429A1.348,1.348,0,0,0,4,12.25Zm9-4.857V6.25a.4.4,0,0,0-.375-.429H6.375A.4.4,0,0,0,6,6.25V7.393a.4.4,0,0,0,.375.429h6.25A.4.4,0,0,0,13,7.393Zm0,3.429V9.679a.4.4,0,0,0-.375-.429H6.375A.4.4,0,0,0,6,9.679v1.143a.4.4,0,0,0,.375.429h6.25A.4.4,0,0,0,13,10.821Zm0,3.429V13.107a.4.4,0,0,0-.375-.429H6.375A.4.4,0,0,0,6,13.107V14.25a.4.4,0,0,0,.375.429h6.25A.4.4,0,0,0,13,14.25Z" transform="translate(0 -2.25)" fill="#bcbccb"/>
</svg>
