<svg xmlns="http://www.w3.org/2000/svg" width="16.979" height="16" viewBox="0 0 16.979 16">
  <g id="Layer_2" data-name="Layer 2" transform="translate(-2 -3.718)">
    <path id="Path_404" data-name="Path 404" d="M3.7,10.885a2.732,2.732,0,0,0,2.547,2.885,2.732,2.732,0,0,0,2.547-2.885A2.732,2.732,0,0,0,6.245,8,2.732,2.732,0,0,0,3.7,10.885Zm3.4,0a.911.911,0,0,1-.849.962.969.969,0,0,1,0-1.923A.911.911,0,0,1,7.094,10.885Zm5.943,1.923a5.728,5.728,0,0,0-4.712,2.625,3.546,3.546,0,0,0-.951-.413H7.238a3.666,3.666,0,0,0-1.987,0H5.116A4.584,4.584,0,0,0,2,19.538V20.5H18.979v-.962c0-3.717-2.661-6.731-5.943-6.731ZM7.153,18.577h-3.3a2.517,2.517,0,0,1,1.7-1.692h.136a2.205,2.205,0,0,1,1.172,0h.136a1.854,1.854,0,0,1,.526.231A7.369,7.369,0,0,0,7.153,18.577Z" transform="translate(0 -0.782)" fill="#cecfd0"/>
    <circle id="Ellipse_50" data-name="Ellipse 50" cx="3.5" cy="3.5" r="3.5" transform="translate(10 3.718)" fill="#cecfd0"/>
  </g>
</svg>
