<svg xmlns="http://www.w3.org/2000/svg" width="18" height="12.071" viewBox="0 0 18 12.071">
  <path id="Path_461" data-name="Path 461" d="M5.338,6.292a.894.894,0,0,0-.3-.211.812.812,0,0,0-.684,0,.894.894,0,0,0-.3.211L2.261,8.3a1.1,1.1,0,0,0,0,1.428.838.838,0,0,0,1.278,0l.261-.3v7.635a.957.957,0,0,0,.9,1.006.957.957,0,0,0,.9-1.006V9.43l.261.3a.835.835,0,0,0,1.278,0,1.091,1.091,0,0,0,0-1.428Zm4.76,1.72h9A.957.957,0,0,0,20,7.006.957.957,0,0,0,19.1,6h-9a.957.957,0,0,0-.9,1.006A.957.957,0,0,0,10.1,8.012Zm9,8.047h-9a1.012,1.012,0,0,0,0,2.012h9a1.012,1.012,0,0,0,0-2.012Zm0-5.03h-9a1.012,1.012,0,0,0,0,2.012h9a1.012,1.012,0,0,0,0-2.012Z" transform="translate(-1.996 -6)" fill="#cecfd0"/>
</svg>
