<svg xmlns="http://www.w3.org/2000/svg" width="15.749" height="15.217" viewBox="0 0 15.749 15.217">
  <path id="Path_404" data-name="Path 404" d="M9.125,11.454H3.875A.861.861,0,0,0,3,12.3v5.072a.861.861,0,0,0,.875.845h5.25A.861.861,0,0,0,10,17.371V12.3A.861.861,0,0,0,9.125,11.454ZM8.25,16.526H4.75V13.144h3.5ZM17.874,3h-5.25a.861.861,0,0,0-.875.845V8.918a.861.861,0,0,0,.875.845h5.25a.861.861,0,0,0,.875-.845V3.845A.861.861,0,0,0,17.874,3ZM17,8.072H13.5V4.691H17Zm.875,5.918h-1.75V12.3a.875.875,0,0,0-1.75,0V13.99h-1.75a.846.846,0,1,0,0,1.691h1.75v1.691a.875.875,0,0,0,1.75,0V15.68h1.75a.846.846,0,1,0,0-1.691ZM9.125,3H3.875A.861.861,0,0,0,3,3.845V8.918a.861.861,0,0,0,.875.845h5.25A.861.861,0,0,0,10,8.918V3.845A.861.861,0,0,0,9.125,3ZM8.25,8.072H4.75V4.691h3.5Z" transform="translate(-3 -3)" fill="#cecfd0"/>
</svg>
