<svg xmlns="http://www.w3.org/2000/svg" width="16.197" height="16" viewBox="0 0 16.197 16">
  <path id="Path_442" data-name="Path 442" d="M2.867.528A2.339,2.339,0,0,0,.529,2.843v11.37a2.339,2.339,0,0,0,2.338,2.315H14.388a2.339,2.339,0,0,0,2.338-2.315V2.843A2.339,2.339,0,0,0,14.388.528Zm0,1.6H6.2v5.6a.811.811,0,0,0,1.381.561L8.632,7.259,9.677,8.292a.811.811,0,0,0,1.381-.561v-5.6h3.33a.7.7,0,0,1,.718.714v11.37a.705.705,0,0,1-.718.715H2.867a.7.7,0,0,1-.717-.715V2.843a.7.7,0,0,1,.717-.714Zm4.95,0H9.438V5.8L9.2,5.564a.817.817,0,0,0-1.142,0l-.24.236Z" transform="translate(-0.529 -0.528)" fill="#cecfd0"/>
</svg>
