<svg xmlns="http://www.w3.org/2000/svg" width="17.737" height="15.015" viewBox="0 0 17.737 15.015">
  <path id="Path_406" data-name="Path 406" d="M1,3.467V7.242a5.263,5.263,0,0,0,5.284,5.242,5.328,5.328,0,0,0,1.466-.2A5.639,5.639,0,0,0,8.584,13.7L6.323,15.943a.625.625,0,0,0,0,.889.637.637,0,0,0,.9,0l2.26-2.244a5.708,5.708,0,0,0,9.257-4.415V6.061a1.548,1.548,0,0,0-1.554-1.542H13.039a5.725,5.725,0,0,0-2.031.37A5.288,5.288,0,0,0,6.284,2h-3.8A1.473,1.473,0,0,0,1,3.467Zm9.382,10.224,3.106-3.083a.625.625,0,0,0,0-.889.637.637,0,0,0-.9,0L9.487,12.8a4.354,4.354,0,0,1-.88-2.629,4.414,4.414,0,0,1,4.431-4.4h4.144a.286.286,0,0,1,.287.285v4.111a4.439,4.439,0,0,1-7.088,3.519ZM6.284,3.257a4.02,4.02,0,0,1,3.6,2.209A5.687,5.687,0,0,0,7.827,7.883L5.882,5.954a.637.637,0,0,0-.9,0,.625.625,0,0,0,0,.889L7.416,9.252a5.674,5.674,0,0,0,0,1.815,4.049,4.049,0,0,1-1.128.159A4,4,0,0,1,2.267,7.242V3.467a.211.211,0,0,1,.212-.21Z" transform="translate(-1 -2)" fill="#bcbccb"/>
</svg>
