<svg xmlns="http://www.w3.org/2000/svg" width="17.136" height="17.493" viewBox="0 0 17.136 17.493">
  <path id="Path_408" data-name="Path 408" d="M4.284,6.56H6.426V4.373H4.284Zm0,3.28H6.426V7.653H4.284Zm0,3.28H6.426V10.933H4.284ZM7.5,6.56h5.355V4.373H7.5ZM13.923,0H3.213A3.247,3.247,0,0,0,0,3.28V14.213a3.248,3.248,0,0,0,3.213,3.28h10.71a3.248,3.248,0,0,0,3.213-3.28V3.28A3.247,3.247,0,0,0,13.923,0Zm1.071,14.213a1.081,1.081,0,0,1-1.071,1.093H3.213a1.081,1.081,0,0,1-1.071-1.093V3.28A1.082,1.082,0,0,1,3.213,2.187h10.71A1.082,1.082,0,0,1,14.994,3.28ZM7.5,9.84h5.355V7.653H7.5Zm0,3.28h5.355V10.933H7.5Z" fill="#cecfd0"/>
</svg>
