<svg xmlns="http://www.w3.org/2000/svg" width="17.974" height="10.594" viewBox="0 0 17.974 10.594">
  <path id="Path_448" data-name="Path 448" d="M16.57,8H1.4A1.4,1.4,0,0,0,0,9.394V17.2a1.4,1.4,0,0,0,1.4,1.394H16.57a1.4,1.4,0,0,0,1.4-1.394V9.394A1.4,1.4,0,0,0,16.57,8ZM.562,9.394A.839.839,0,0,1,1.4,8.558H2.518a1.368,1.368,0,0,1,.29.836A1.4,1.4,0,0,1,.562,10.5Zm1.956,8.642H1.4A.839.839,0,0,1,.562,17.2V16.094A1.4,1.4,0,0,1,2.808,17.2a1.368,1.368,0,0,1-.29.836ZM17.413,17.2a.839.839,0,0,1-.843.836H15.456a1.369,1.369,0,0,1-.29-.836,1.4,1.4,0,0,1,2.247-1.106Zm0-1.754A1.952,1.952,0,0,0,14.6,17.2a1.92,1.92,0,0,0,.2.836H3.171a1.92,1.92,0,0,0,.2-.836A1.952,1.952,0,0,0,.562,15.446v-4.3A1.952,1.952,0,0,0,3.37,9.394a1.92,1.92,0,0,0-.2-.836H14.8a1.92,1.92,0,0,0-.2.836,1.952,1.952,0,0,0,2.808,1.754Zm0-4.947a1.4,1.4,0,0,1-2.247-1.106,1.369,1.369,0,0,1,.29-.836H16.57a.839.839,0,0,1,.843.836ZM8.706,11.9h.562a.56.56,0,0,1,.562.558.281.281,0,0,0,.562,0,1.119,1.119,0,0,0-1.123-1.115v-.279a.281.281,0,0,0-.562,0v.279a1.115,1.115,0,1,0,0,2.23h.562a.558.558,0,1,1,0,1.115H8.706a.56.56,0,0,1-.562-.558.281.281,0,0,0-.562,0,1.119,1.119,0,0,0,1.123,1.115v.279a.281.281,0,0,0,.562,0v-.279a1.115,1.115,0,1,0,0-2.23H8.706a.558.558,0,1,1,0-1.115Zm.281-2.23A3.624,3.624,0,1,0,12.638,13.3,3.638,3.638,0,0,0,8.987,9.673Zm0,6.691A3.067,3.067,0,1,1,12.076,13.3,3.078,3.078,0,0,1,8.987,16.363Z" transform="translate(0 -8)" fill="#cecfd0"/>
</svg>
