<svg xmlns="http://www.w3.org/2000/svg" width="16.396" height="16.666" viewBox="0 0 16.396 16.666">
  <path id="Path_407" data-name="Path 407" d="M17.3,2H3.093A1.1,1.1,0,0,0,2,3.111V17.555a1.1,1.1,0,0,0,1.093,1.111H17.3A1.1,1.1,0,0,0,18.4,17.555V3.111A1.1,1.1,0,0,0,17.3,2Zm0,15.555H3.093V3.111H17.3ZM5.826,10.889H14.57a.556.556,0,0,0,0-1.111H5.826a.556.556,0,0,0,0,1.111Zm0-3.333H14.57a.556.556,0,0,0,0-1.111H5.826a.556.556,0,0,0,0,1.111Zm0,6.666H14.57a.556.556,0,0,0,0-1.111H5.826a.556.556,0,0,0,0,1.111Z" transform="translate(-2 -2)" fill="#cecfd0"/>
</svg>
