<svg xmlns="http://www.w3.org/2000/svg" width="14.893" height="17.084" viewBox="0 0 14.893 17.084">
  <path id="XMLID_1973_" d="M7.723,3.342V.939A.888.888,0,1,1,9.5.939v2.4a.888.888,0,1,1-1.773,0Zm6.56.939a.9.9,0,0,0,.887-.939V.939a.888.888,0,1,0-1.773,0v2.4A.9.9,0,0,0,14.284,4.281ZM8.291,7.51h6.294a.752.752,0,0,0,0-1.5H8.291a.752.752,0,0,0,0,1.5Zm9.893-6.2H16.713A.733.733,0,0,0,16,2.065a.733.733,0,0,0,.709.751h.762V15.583H5.418V2.816h.762a.733.733,0,0,0,.709-.751.733.733,0,0,0-.709-.751H4.709A.8.8,0,0,0,4,2.14V16.334a.733.733,0,0,0,.709.751H18.184a.733.733,0,0,0,.709-.751V2.14A.8.8,0,0,0,18.184,1.314Zm-7.323,1.5h1.17a.733.733,0,0,0,.709-.751.733.733,0,0,0-.709-.751h-1.17a.733.733,0,0,0-.709.751A.733.733,0,0,0,10.862,2.816ZM8.291,10.889h6.294a.752.752,0,0,0,0-1.5H8.291a.752.752,0,0,0,0,1.5Z" transform="translate(-4)" fill="#cecfd0"/>
</svg>
